# MagicaVoxel @ Ephtracy

# group
g LowBoy-0

# material
mtllib LowBoy-0.mtl
usemtl palette

# normals
vn -1 0 0
vn 1 0 0
vn 0 0 1
vn 0 0 -1
vn 0 -1 0
vn 0 1 0

# texcoords
vt 0.306641 0.5
vt 0.943359 0.5
vt 0.974609 0.5
vt 0.978516 0.5
vt 0.982422 0.5

# verts
v -6 1 -0
v -6 1 -2
v -6 2 -0
v -6 2 -1
v -6 3 -0
v -6 3 -1
v -6 3 -2
v -6 5 -0
v -6 5 -1
v -6 5 -2
v -5 0 -0
v -5 0 -2
v -5 1 1
v -5 1 -0
v -5 1 -2
v -5 1 -3
v -5 2 1
v -5 2 -0
v -5 3 -0
v -5 3 -2
v -5 5 1
v -5 5 -0
v -5 5 -2
v -5 5 -3
v -5 11 -0
v -5 11 -2
v -5 13 -0
v -5 13 -2
v -4 0 1
v -4 0 -0
v -4 0 -2
v -4 0 -3
v -4 1 2
v -4 1 1
v -4 1 -0
v -4 1 -2
v -4 1 -3
v -4 1 -4
v -4 2 1
v -4 3 2
v -4 3 1
v -4 3 -3
v -4 3 -4
v -4 4 2
v -4 4 1
v -4 4 -3
v -4 4 -4
v -4 5 -0
v -4 5 -2
v -4 11 -0
v -4 11 -2
v -2 13 -0
v -2 13 -2
v -2 14 -0
v -2 14 -2
v 1 0 -0
v 1 0 -2
v 1 1 -2
v 1 1 -3
v 1 2 2
v 1 2 1
v 1 2 -0
v 1 2 -1
v 1 2 -2
v 1 2 -3
v 1 2 -4
v 1 3 2
v 1 3 1
v 1 3 -0
v 1 3 -2
v 1 3 -3
v 1 3 -4
v 2 0 1
v 2 0 -0
v 2 0 -2
v 2 0 -3
v 2 1 2
v 2 1 1
v 2 1 -0
v 2 1 -2
v 2 1 -3
v 2 1 -4
v 2 2 2
v 2 2 1
v 2 2 -0
v 2 2 -3
v 2 2 -4
v -2 0 1
v -2 0 -0
v -2 0 -2
v -2 0 -3
v -2 1 2
v -2 1 1
v -2 1 -0
v -2 1 -2
v -2 1 -3
v -2 1 -4
v -2 2 2
v -2 2 1
v -2 2 -0
v -2 2 -3
v -2 2 -4
v -1 0 -0
v -1 0 -2
v -1 1 -0
v -1 1 -1
v -1 1 -2
v -1 1 -3
v -1 2 2
v -1 2 -0
v -1 2 -1
v -1 2 -2
v -1 2 -3
v -1 2 -4
v -1 3 2
v -1 3 1
v -1 3 -0
v -1 3 -2
v -1 3 -4
v 2 13 -0
v 2 13 -2
v 2 14 -0
v 2 14 -2
v 4 0 1
v 4 0 -0
v 4 0 -2
v 4 0 -3
v 4 1 2
v 4 1 1
v 4 1 -0
v 4 1 -2
v 4 1 -3
v 4 1 -4
v 4 2 2
v 4 2 1
v 4 3 2
v 4 3 1
v 4 3 -3
v 4 4 2
v 4 4 1
v 4 4 -3
v 4 4 -4
v 4 5 -0
v 4 5 -2
v 4 11 -0
v 4 11 -2
v 5 0 -0
v 5 0 -1
v 5 0 -2
v 5 1 1
v 5 1 -0
v 5 1 -1
v 5 1 -2
v 5 1 -3
v 5 2 1
v 5 2 -0
v 5 3 -2
v 5 3 -3
v 5 4 1
v 5 4 -0
v 5 5 1
v 5 5 -0
v 5 5 -2
v 5 5 -3
v 5 11 -0
v 5 11 -2
v 5 13 -0
v 5 13 -2
v 6 1 -0
v 6 1 -1
v 6 1 -2
v 6 3 -1
v 6 3 -2
v 6 5 -0
v 6 5 -2
v -4 1 2
v -4 3 2
v -4 4 2
v -3 2 2
v -3 3 2
v -3 4 2
v -2 1 2
v -2 2 2
v -2 3 2
v -1 2 2
v -1 3 2
v 0 3 2
v 0 4 2
v 1 2 2
v 1 3 2
v 1 4 2
v 2 1 2
v 2 2 2
v 3 1 2
v 3 2 2
v 3 3 2
v 3 4 2
v 4 1 2
v 4 2 2
v 4 3 2
v 4 4 2
v -5 1 1
v -5 2 1
v -5 5 1
v -4 0 1
v -4 1 1
v -4 2 1
v -4 3 1
v -4 4 1
v -4 5 1
v -3 4 1
v -2 0 1
v -2 1 1
v -1 4 1
v -1 5 1
v 0 4 1
v 0 5 1
v 1 4 1
v 1 5 1
v 2 0 1
v 2 1 1
v 2 4 1
v 2 5 1
v 3 0 1
v 3 1 1
v 3 4 1
v 3 5 1
v 4 0 1
v 4 1 1
v 4 2 1
v 4 3 1
v 4 4 1
v 5 1 1
v 5 2 1
v 5 4 1
v 5 5 1
v -6 1 -0
v -6 2 -0
v -6 3 -0
v -6 5 -0
v -5 0 -0
v -5 1 -0
v -5 2 -0
v -5 3 -0
v -5 5 -0
v -5 11 -0
v -5 13 -0
v -4 0 -0
v -4 1 -0
v -4 5 -0
v -4 11 -0
v -2 0 -0
v -2 1 -0
v -2 2 -0
v -2 10 -0
v -2 11 -0
v -2 13 -0
v -2 14 -0
v -1 0 -0
v -1 1 -0
v -1 2 -0
v -1 3 -0
v -1 5 -0
v -1 6 -0
v -1 7 -0
v -1 10 -0
v -1 11 -0
v 0 2 -0
v 0 3 -0
v 0 5 -0
v 1 0 -0
v 1 2 -0
v 1 3 -0
v 1 5 -0
v 1 6 -0
v 1 7 -0
v 1 10 -0
v 1 11 -0
v 2 0 -0
v 2 1 -0
v 2 2 -0
v 2 5 -0
v 2 10 -0
v 2 11 -0
v 2 13 -0
v 2 14 -0
v 3 5 -0
v 4 0 -0
v 4 1 -0
v 4 5 -0
v 4 11 -0
v 5 0 -0
v 5 1 -0
v 5 2 -0
v 5 4 -0
v 5 5 -0
v 5 11 -0
v 5 13 -0
v 6 1 -0
v 6 5 -0
v -6 1 -2
v -6 3 -2
v -6 5 -2
v -5 0 -2
v -5 1 -2
v -5 3 -2
v -5 5 -2
v -5 11 -2
v -5 13 -2
v -4 0 -2
v -4 1 -2
v -4 5 -2
v -4 11 -2
v -2 0 -2
v -2 1 -2
v -2 13 -2
v -2 14 -2
v -1 0 -2
v -1 1 -2
v -1 2 -2
v -1 3 -2
v 0 3 -2
v 1 0 -2
v 1 1 -2
v 1 2 -2
v 1 3 -2
v 2 0 -2
v 2 1 -2
v 2 13 -2
v 2 14 -2
v 4 0 -2
v 4 1 -2
v 4 5 -2
v 4 11 -2
v 5 0 -2
v 5 1 -2
v 5 3 -2
v 5 5 -2
v 5 11 -2
v 5 13 -2
v 6 1 -2
v 6 3 -2
v 6 5 -2
v -5 1 -3
v -5 5 -3
v -4 0 -3
v -4 1 -3
v -4 3 -3
v -4 4 -3
v -3 0 -3
v -3 1 -3
v -3 4 -3
v -2 0 -3
v -2 1 -3
v -2 2 -3
v -2 4 -3
v -1 1 -3
v -1 2 -3
v -1 4 -3
v 0 4 -3
v 1 1 -3
v 1 2 -3
v 2 0 -3
v 2 1 -3
v 2 2 -3
v 2 4 -3
v 3 0 -3
v 3 1 -3
v 3 4 -3
v 4 0 -3
v 4 1 -3
v 4 3 -3
v 4 4 -3
v 4 5 -3
v 5 1 -3
v 5 3 -3
v 5 5 -3
v -4 1 -4
v -4 3 -4
v -4 4 -4
v -3 1 -4
v -3 3 -4
v -3 4 -4
v -2 1 -4
v -2 2 -4
v -2 3 -4
v -2 4 -4
v -1 2 -4
v -1 3 -4
v -1 4 -4
v 0 3 -4
v 0 4 -4
v 1 2 -4
v 1 3 -4
v 2 1 -4
v 2 2 -4
v 2 3 -4
v 2 4 -4
v 3 1 -4
v 3 2 -4
v 3 3 -4
v 3 4 -4
v 4 1 -4
v 4 4 -4
v -4 0 1
v -2 0 1
v 2 0 1
v 3 0 1
v 4 0 1
v -5 0 -0
v -4 0 -0
v -2 0 -0
v -1 0 -0
v 1 0 -0
v 2 0 -0
v 3 0 -0
v 4 0 -0
v 5 0 -0
v 4 0 -1
v 5 0 -1
v -5 0 -2
v -4 0 -2
v -3 0 -2
v -2 0 -2
v -1 0 -2
v 1 0 -2
v 2 0 -2
v 3 0 -2
v 4 0 -2
v 5 0 -2
v -4 0 -3
v -3 0 -3
v -2 0 -3
v 2 0 -3
v 3 0 -3
v 4 0 -3
v -4 1 2
v -2 1 2
v 2 1 2
v 3 1 2
v 4 1 2
v -5 1 1
v -4 1 1
v -2 1 1
v 2 1 1
v 3 1 1
v 4 1 1
v 5 1 1
v -6 1 -0
v -5 1 -0
v -4 1 -0
v 4 1 -0
v 5 1 -0
v 6 1 -0
v 5 1 -1
v 6 1 -1
v -6 1 -2
v -5 1 -2
v -4 1 -2
v -2 1 -2
v -1 1 -2
v 1 1 -2
v 2 1 -2
v 4 1 -2
v 5 1 -2
v 6 1 -2
v -5 1 -3
v -4 1 -3
v -3 1 -3
v -2 1 -3
v -1 1 -3
v 1 1 -3
v 2 1 -3
v 3 1 -3
v 4 1 -3
v 5 1 -3
v -4 1 -4
v -3 1 -4
v -2 1 -4
v 2 1 -4
v 3 1 -4
v 4 1 -4
v -2 2 2
v -1 2 2
v 1 2 2
v 2 2 2
v -2 2 1
v 1 2 1
v 2 2 1
v -2 2 -0
v -1 2 -0
v 0 2 -0
v 1 2 -0
v 2 2 -0
v -1 2 -1
v 0 2 -1
v 1 2 -1
v -1 2 -2
v 1 2 -2
v -2 2 -3
v -1 2 -3
v 1 2 -3
v 2 2 -3
v -2 2 -4
v -1 2 -4
v 1 2 -4
v 2 2 -4
v -1 3 2
v 0 3 2
v 1 3 2
v -1 3 1
v 0 3 1
v 1 3 1
v -1 3 -0
v 0 3 -0
v 1 3 -0
v -1 3 -2
v 0 3 -2
v 1 3 -2
v 1 3 -3
v -1 3 -4
v 0 3 -4
v 1 3 -4
v -5 11 -0
v -4 11 -0
v 4 11 -0
v 5 11 -0
v -5 11 -2
v -4 11 -2
v 4 11 -2
v 5 11 -2
v -4 4 2
v -3 4 2
v 0 4 2
v 1 4 2
v 3 4 2
v 4 4 2
v -4 4 1
v -3 4 1
v -1 4 1
v 0 4 1
v 1 4 1
v 2 4 1
v 3 4 1
v 4 4 1
v -4 4 -3
v -3 4 -3
v -2 4 -3
v -1 4 -3
v 0 4 -3
v 2 4 -3
v 3 4 -3
v 4 4 -3
v -4 4 -4
v -3 4 -4
v -2 4 -4
v -1 4 -4
v 0 4 -4
v 2 4 -4
v 3 4 -4
v 4 4 -4
v -5 5 1
v -4 5 1
v -1 5 1
v 0 5 1
v 1 5 1
v 2 5 1
v 3 5 1
v 5 5 1
v -6 5 -0
v -5 5 -0
v -4 5 -0
v -1 5 -0
v 0 5 -0
v 1 5 -0
v 2 5 -0
v 3 5 -0
v 4 5 -0
v 5 5 -0
v 6 5 -0
v -6 5 -1
v -5 5 -1
v -6 5 -2
v -5 5 -2
v -4 5 -2
v 4 5 -2
v 5 5 -2
v 6 5 -2
v -5 5 -3
v 4 5 -3
v 5 5 -3
v -5 13 -0
v -2 13 -0
v 2 13 -0
v 5 13 -0
v -5 13 -2
v -2 13 -2
v 2 13 -2
v 5 13 -2
v -2 14 -0
v 2 14 -0
v -2 14 -2
v 2 14 -2

# faces
f 3/4/1 2/4/1 1/4/1
f 4/4/1 2/4/1 3/4/1
f 5/5/1 4/5/1 3/5/1
f 6/4/1 2/4/1 4/4/1
f 6/5/1 4/5/1 5/5/1
f 7/4/1 2/4/1 6/4/1
f 8/4/1 6/4/1 5/4/1
f 9/5/1 7/5/1 6/5/1
f 9/4/1 6/4/1 8/4/1
f 10/5/1 7/5/1 9/5/1
f 14/4/1 12/4/1 11/4/1
f 15/4/1 12/4/1 14/4/1
f 17/5/1 14/5/1 13/5/1
f 18/5/1 14/5/1 17/5/1
f 19/4/1 18/4/1 17/4/1
f 20/4/1 16/4/1 15/4/1
f 21/4/1 19/4/1 17/4/1
f 22/4/1 19/4/1 21/4/1
f 23/4/1 16/4/1 20/4/1
f 24/4/1 16/4/1 23/4/1
f 27/3/1 26/3/1 25/3/1
f 28/3/1 26/3/1 27/3/1
f 34/4/1 30/4/1 29/4/1
f 35/4/1 30/4/1 34/4/1
f 36/5/1 32/5/1 31/5/1
f 37/5/1 32/5/1 36/5/1
f 39/4/1 34/4/1 33/4/1
f 40/4/1 39/4/1 33/4/1
f 41/4/1 39/4/1 40/4/1
f 42/5/1 38/5/1 37/5/1
f 43/5/1 38/5/1 42/5/1
f 44/5/1 41/5/1 40/5/1
f 45/5/1 41/5/1 44/5/1
f 46/4/1 43/4/1 42/4/1
f 47/4/1 43/4/1 46/4/1
f 50/3/1 49/3/1 48/3/1
f 51/3/1 49/3/1 50/3/1
f 54/3/1 53/3/1 52/3/1
f 55/3/1 53/3/1 54/3/1
f 58/4/1 57/4/1 56/4/1
f 62/4/1 58/4/1 56/4/1
f 62/4/1 59/4/1 58/4/1
f 63/4/1 59/4/1 62/4/1
f 64/4/1 59/4/1 63/4/1
f 65/4/1 59/4/1 64/4/1
f 67/5/1 61/5/1 60/5/1
f 68/4/1 62/4/1 61/4/1
f 68/5/1 61/5/1 67/5/1
f 69/4/1 62/4/1 68/4/1
f 70/4/1 65/4/1 64/4/1
f 71/5/1 66/5/1 65/5/1
f 71/4/1 65/4/1 70/4/1
f 72/5/1 66/5/1 71/5/1
f 78/5/1 74/5/1 73/5/1
f 79/5/1 74/5/1 78/5/1
f 80/4/1 76/4/1 75/4/1
f 81/4/1 76/4/1 80/4/1
f 83/4/1 79/4/1 78/4/1
f 83/4/1 78/4/1 77/4/1
f 84/4/1 79/4/1 83/4/1
f 85/4/1 79/4/1 84/4/1
f 86/5/1 82/5/1 81/5/1
f 87/5/1 82/5/1 86/5/1
f 88/4/2 89/4/2 93/4/2
f 93/4/2 89/4/2 94/4/2
f 90/4/2 91/4/2 95/4/2
f 95/4/2 91/4/2 96/4/2
f 92/4/2 93/4/2 98/4/2
f 93/5/2 94/5/2 99/5/2
f 98/4/2 93/4/2 99/4/2
f 99/5/2 94/5/2 100/5/2
f 96/4/2 97/4/2 101/4/2
f 101/4/2 97/4/2 102/4/2
f 103/4/2 104/4/2 105/4/2
f 105/4/2 104/4/2 106/4/2
f 106/4/2 104/4/2 107/4/2
f 105/5/2 106/5/2 110/5/2
f 107/4/2 108/4/2 111/4/2
f 106/4/2 107/4/2 111/4/2
f 110/5/2 106/5/2 111/5/2
f 111/4/2 108/4/2 112/4/2
f 112/4/2 108/4/2 113/4/2
f 109/4/2 110/4/2 115/4/2
f 115/4/2 110/4/2 116/4/2
f 116/4/2 110/4/2 117/4/2
f 113/4/2 114/4/2 118/4/2
f 112/4/2 113/4/2 118/4/2
f 118/4/2 114/4/2 119/4/2
f 120/3/2 121/3/2 122/3/2
f 122/3/2 121/3/2 123/3/2
f 124/4/2 125/4/2 129/4/2
f 129/4/2 125/4/2 130/4/2
f 126/5/2 127/5/2 131/5/2
f 131/5/2 127/5/2 132/5/2
f 128/5/2 129/5/2 134/5/2
f 134/5/2 129/5/2 135/5/2
f 134/4/2 135/4/2 136/4/2
f 136/4/2 135/4/2 137/4/2
f 132/4/2 133/4/2 138/4/2
f 136/5/2 137/5/2 139/5/2
f 139/5/2 137/5/2 140/5/2
f 138/4/2 133/4/2 141/4/2
f 141/4/2 133/4/2 142/4/2
f 143/3/2 144/3/2 145/3/2
f 145/3/2 144/3/2 146/3/2
f 147/5/2 148/5/2 151/5/2
f 148/4/2 149/4/2 152/4/2
f 151/5/2 148/5/2 152/5/2
f 152/4/2 149/4/2 153/4/2
f 150/4/2 151/4/2 155/4/2
f 155/4/2 151/4/2 156/4/2
f 153/4/2 154/4/2 157/4/2
f 157/4/2 154/4/2 158/4/2
f 155/5/2 156/5/2 159/5/2
f 159/5/2 156/5/2 160/5/2
f 159/4/2 160/4/2 161/4/2
f 161/4/2 160/4/2 162/4/2
f 157/5/2 158/5/2 163/5/2
f 163/5/2 158/5/2 164/5/2
f 165/3/2 166/3/2 167/3/2
f 167/3/2 166/3/2 168/3/2
f 169/4/2 170/4/2 172/4/2
f 170/5/2 171/5/2 172/5/2
f 172/5/2 171/5/2 173/5/2
f 169/4/2 172/4/2 174/4/2
f 172/4/2 173/4/2 174/4/2
f 174/4/2 173/4/2 175/4/2
f 179/4/3 177/4/3 176/4/3
f 180/5/3 178/5/3 177/5/3
f 180/4/3 177/4/3 179/4/3
f 181/5/3 178/5/3 180/5/3
f 182/4/3 179/4/3 176/4/3
f 183/5/3 180/5/3 179/5/3
f 183/4/3 179/4/3 182/4/3
f 184/4/3 181/4/3 180/4/3
f 184/5/3 180/5/3 183/5/3
f 185/4/3 184/4/3 183/4/3
f 186/4/3 181/4/3 184/4/3
f 186/4/3 184/4/3 185/4/3
f 187/4/3 181/4/3 186/4/3
f 188/4/3 181/4/3 187/4/3
f 190/5/3 188/5/3 187/5/3
f 191/5/3 188/5/3 190/5/3
f 193/5/3 190/5/3 189/5/3
f 194/4/3 193/4/3 192/4/3
f 195/5/3 190/5/3 193/5/3
f 195/4/3 193/4/3 194/4/3
f 196/4/3 191/4/3 190/4/3
f 196/5/3 190/5/3 195/5/3
f 197/4/3 191/4/3 196/4/3
f 198/5/3 195/5/3 194/5/3
f 199/4/3 196/4/3 195/4/3
f 199/5/3 195/5/3 198/5/3
f 200/5/3 197/5/3 196/5/3
f 200/4/3 196/4/3 199/4/3
f 201/5/3 197/5/3 200/5/3
f 206/5/3 203/5/3 202/5/3
f 207/4/3 204/4/3 203/4/3
f 207/5/3 203/5/3 206/5/3
f 208/4/3 204/4/3 207/4/3
f 209/4/3 204/4/3 208/4/3
f 210/4/3 204/4/3 209/4/3
f 211/5/3 210/5/3 209/5/3
f 212/4/3 206/4/3 205/4/3
f 213/4/3 206/4/3 212/4/3
f 214/5/3 210/5/3 211/5/3
f 215/5/3 210/5/3 214/5/3
f 216/4/3 215/4/3 214/4/3
f 217/4/3 215/4/3 216/4/3
f 218/5/3 217/5/3 216/5/3
f 219/5/3 217/5/3 218/5/3
f 222/4/3 219/4/3 218/4/3
f 223/4/3 219/4/3 222/4/3
f 224/5/3 221/5/3 220/5/3
f 225/5/3 221/5/3 224/5/3
f 226/5/3 223/5/3 222/5/3
f 227/5/3 223/5/3 226/5/3
f 228/4/3 225/4/3 224/4/3
f 229/4/3 225/4/3 228/4/3
f 232/4/3 227/4/3 226/4/3
f 233/4/3 230/4/3 229/4/3
f 234/5/3 231/5/3 230/5/3
f 234/4/3 230/4/3 233/4/3
f 234/5/3 232/5/3 231/5/3
f 235/4/3 227/4/3 232/4/3
f 235/5/3 232/5/3 234/5/3
f 236/4/3 227/4/3 235/4/3
f 242/4/3 238/4/3 237/4/3
f 243/5/3 239/5/3 238/5/3
f 243/4/3 238/4/3 242/4/3
f 244/4/3 240/4/3 239/4/3
f 244/5/3 239/5/3 243/5/3
f 245/4/3 240/4/3 244/4/3
f 248/4/3 242/4/3 241/4/3
f 249/4/3 242/4/3 248/4/3
f 251/3/3 247/3/3 246/3/3
f 255/3/3 251/3/3 250/3/3
f 256/3/3 247/3/3 251/3/3
f 256/3/3 251/3/3 255/3/3
f 257/3/3 247/3/3 256/3/3
f 259/4/3 253/4/3 252/4/3
f 260/5/3 254/5/3 253/5/3
f 260/4/3 253/4/3 259/4/3
f 261/5/3 254/5/3 260/5/3
f 263/3/3 255/3/3 250/3/3
f 264/3/3 255/3/3 263/3/3
f 265/3/3 255/3/3 264/3/3
f 266/2/3 256/2/3 255/2/3
f 266/3/3 255/3/3 265/3/3
f 267/3/3 258/3/3 257/3/3
f 267/2/3 256/2/3 266/2/3
f 267/3/3 257/3/3 256/3/3
f 268/5/3 262/5/3 261/5/3
f 269/5/3 262/5/3 268/5/3
f 270/3/3 264/3/3 263/3/3
f 272/4/3 269/4/3 268/4/3
f 273/4/3 269/4/3 272/4/3
f 274/3/3 264/3/3 270/3/3
f 275/2/3 265/2/3 264/2/3
f 275/3/3 264/3/3 274/3/3
f 276/3/3 266/3/3 265/3/3
f 276/2/3 265/2/3 275/2/3
f 276/3/3 267/3/3 266/3/3
f 277/3/3 267/3/3 276/3/3
f 278/3/3 258/3/3 267/3/3
f 278/3/3 267/3/3 277/3/3
f 279/4/3 272/4/3 271/4/3
f 280/4/3 272/4/3 279/4/3
f 281/4/3 272/4/3 280/4/3
f 282/3/3 277/3/3 276/3/3
f 282/3/3 275/3/3 274/3/3
f 282/3/3 276/3/3 275/3/3
f 283/2/3 278/2/3 277/2/3
f 283/3/3 277/3/3 282/3/3
f 284/3/3 258/3/3 278/3/3
f 284/2/3 278/2/3 283/2/3
f 285/3/3 258/3/3 284/3/3
f 286/3/3 258/3/3 285/3/3
f 287/3/3 285/3/3 284/3/3
f 287/3/3 284/3/3 283/3/3
f 287/3/3 283/3/3 282/3/3
f 290/3/3 285/3/3 287/3/3
f 291/3/3 285/3/3 290/3/3
f 292/5/3 289/5/3 288/5/3
f 293/5/3 289/5/3 292/5/3
f 297/3/3 285/3/3 291/3/3
f 298/3/3 285/3/3 297/3/3
f 299/4/3 296/4/3 295/4/3
f 299/4/3 294/4/3 293/4/3
f 299/4/3 295/4/3 294/4/3
f 300/4/3 296/4/3 299/4/3
f 301/4/4 302/4/4 305/4/4
f 302/5/4 303/5/4 306/5/4
f 305/4/4 302/4/4 306/4/4
f 306/5/4 303/5/4 307/5/4
f 304/4/4 305/4/4 310/4/4
f 310/4/4 305/4/4 311/4/4
f 308/3/4 309/3/4 313/3/4
f 312/3/4 313/3/4 316/3/4
f 313/3/4 309/3/4 316/3/4
f 314/4/4 315/4/4 318/4/4
f 318/4/4 315/4/4 319/4/4
f 320/5/4 321/5/4 322/5/4
f 320/5/4 322/5/4 325/5/4
f 325/5/4 322/5/4 326/5/4
f 323/4/4 324/4/4 327/4/4
f 327/4/4 324/4/4 328/4/4
f 316/3/4 317/3/4 329/3/4
f 312/3/4 316/3/4 329/3/4
f 329/3/4 317/3/4 330/3/4
f 312/3/4 329/3/4 333/3/4
f 333/3/4 329/3/4 334/3/4
f 331/4/4 332/4/4 335/4/4
f 335/4/4 332/4/4 336/4/4
f 334/3/4 329/3/4 339/3/4
f 339/3/4 329/3/4 340/3/4
f 336/5/4 337/5/4 341/5/4
f 337/4/4 338/4/4 342/4/4
f 341/5/4 337/5/4 342/5/4
f 342/4/4 338/4/4 343/4/4
f 344/4/4 345/4/4 347/4/4
f 347/4/4 345/4/4 348/4/4
f 348/4/4 345/4/4 349/4/4
f 346/5/4 347/5/4 350/5/4
f 350/5/4 347/5/4 351/5/4
f 349/4/4 345/4/4 352/4/4
f 350/4/4 351/4/4 353/4/4
f 353/4/4 351/4/4 354/4/4
f 352/4/4 345/4/4 356/4/4
f 354/4/4 355/4/4 357/4/4
f 357/4/4 355/4/4 358/4/4
f 356/4/4 345/4/4 359/4/4
f 359/4/4 345/4/4 360/4/4
f 361/4/4 362/4/4 364/4/4
f 364/4/4 362/4/4 365/4/4
f 360/4/4 345/4/4 366/4/4
f 363/4/4 364/4/4 367/4/4
f 367/4/4 364/4/4 368/4/4
f 366/4/4 345/4/4 369/4/4
f 367/5/4 368/5/4 370/5/4
f 370/5/4 368/5/4 371/5/4
f 369/4/4 345/4/4 373/4/4
f 373/4/4 345/4/4 374/4/4
f 371/4/4 372/4/4 375/4/4
f 373/5/4 374/5/4 376/5/4
f 375/4/4 372/4/4 376/4/4
f 372/5/4 373/5/4 376/5/4
f 376/5/4 374/5/4 377/5/4
f 378/5/4 379/5/4 381/5/4
f 379/4/4 380/4/4 382/4/4
f 381/5/4 379/5/4 382/5/4
f 382/4/4 380/4/4 383/4/4
f 381/4/4 382/4/4 384/4/4
f 384/4/4 382/4/4 385/4/4
f 382/5/4 383/5/4 386/5/4
f 385/4/4 382/4/4 386/4/4
f 386/5/4 383/5/4 387/5/4
f 385/4/4 386/4/4 388/4/4
f 386/4/4 387/4/4 388/4/4
f 388/4/4 387/4/4 389/4/4
f 389/4/4 387/4/4 390/4/4
f 389/5/4 390/5/4 391/5/4
f 391/5/4 390/5/4 392/5/4
f 391/4/4 392/4/4 394/4/4
f 393/5/4 394/5/4 396/5/4
f 394/4/4 392/4/4 397/4/4
f 396/5/4 394/5/4 397/5/4
f 397/4/4 392/4/4 398/4/4
f 395/5/4 396/5/4 399/5/4
f 396/4/4 397/4/4 400/4/4
f 399/5/4 396/5/4 400/5/4
f 397/5/4 398/5/4 401/5/4
f 400/4/4 397/4/4 401/4/4
f 401/5/4 398/5/4 402/5/4
f 399/4/4 400/4/4 403/4/4
f 400/4/4 401/4/4 403/4/4
f 401/4/4 402/4/4 403/4/4
f 403/4/4 402/4/4 404/4/4
f 411/4/5 406/4/5 405/4/5
f 412/4/5 406/4/5 411/4/5
f 415/5/5 408/5/5 407/5/5
f 416/4/5 409/4/5 408/4/5
f 416/5/5 408/5/5 415/5/5
f 417/4/5 409/4/5 416/4/5
f 419/3/5 416/3/5 415/3/5
f 419/5/5 418/5/5 417/5/5
f 419/3/5 417/3/5 416/3/5
f 420/5/5 418/5/5 419/5/5
f 421/4/5 411/4/5 410/4/5
f 422/3/5 412/3/5 411/3/5
f 422/4/5 411/4/5 421/4/5
f 423/3/5 412/3/5 422/3/5
f 424/4/5 413/4/5 412/4/5
f 424/3/5 412/3/5 423/3/5
f 425/4/5 413/4/5 424/4/5
f 426/4/5 415/4/5 414/4/5
f 427/3/5 419/3/5 415/3/5
f 427/4/5 415/4/5 426/4/5
f 428/3/5 419/3/5 427/3/5
f 429/4/5 420/4/5 419/4/5
f 429/3/5 419/3/5 428/3/5
f 430/4/5 420/4/5 429/4/5
f 431/5/5 423/5/5 422/5/5
f 432/4/5 424/4/5 423/4/5
f 432/5/5 423/5/5 431/5/5
f 433/4/5 424/4/5 432/4/5
f 434/4/5 428/4/5 427/4/5
f 435/5/5 429/5/5 428/5/5
f 435/4/5 428/4/5 434/4/5
f 436/5/5 429/5/5 435/5/5
f 443/4/5 438/4/5 437/4/5
f 444/4/5 438/4/5 443/4/5
f 445/4/5 440/4/5 439/4/5
f 446/5/5 441/5/5 440/5/5
f 446/4/5 440/4/5 445/4/5
f 447/5/5 441/5/5 446/5/5
f 450/5/5 443/5/5 442/5/5
f 451/5/5 443/5/5 450/5/5
f 452/4/5 448/4/5 447/4/5
f 453/4/5 448/4/5 452/4/5
f 455/4/5 454/4/5 453/4/5
f 456/4/5 454/4/5 455/4/5
f 457/4/5 450/4/5 449/4/5
f 458/4/5 450/4/5 457/4/5
f 465/5/5 456/5/5 455/5/5
f 466/5/5 456/5/5 465/5/5
f 467/4/5 459/4/5 458/4/5
f 468/4/5 459/4/5 467/4/5
f 470/4/5 461/4/5 460/4/5
f 471/4/5 461/4/5 470/4/5
f 472/4/5 463/4/5 462/4/5
f 473/4/5 463/4/5 472/4/5
f 475/4/5 465/4/5 464/4/5
f 476/4/5 465/4/5 475/4/5
f 477/5/5 469/5/5 468/5/5
f 478/4/5 470/4/5 469/4/5
f 478/5/5 469/5/5 477/5/5
f 479/4/5 470/4/5 478/4/5
f 480/5/5 474/5/5 473/5/5
f 481/4/5 475/4/5 474/4/5
f 481/5/5 474/5/5 480/5/5
f 482/4/5 475/4/5 481/4/5
f 487/4/5 484/4/5 483/4/5
f 488/5/5 486/5/5 485/5/5
f 489/5/5 486/5/5 488/5/5
f 490/4/5 484/4/5 487/4/5
f 491/4/5 484/4/5 490/4/5
f 493/4/5 489/4/5 488/4/5
f 494/4/5 489/4/5 493/4/5
f 495/5/5 492/5/5 491/5/5
f 496/4/5 493/4/5 492/4/5
f 496/5/5 492/5/5 495/5/5
f 497/4/5 493/4/5 496/4/5
f 498/5/5 496/5/5 495/5/5
f 498/5/5 497/5/5 496/5/5
f 499/5/5 497/5/5 498/5/5
f 504/4/5 501/4/5 500/4/5
f 505/4/5 501/4/5 504/4/5
f 506/5/5 503/5/5 502/5/5
f 507/5/5 503/5/5 506/5/5
f 511/4/5 509/4/5 508/4/5
f 512/5/5 510/5/5 509/5/5
f 512/4/5 509/4/5 511/4/5
f 513/5/5 510/5/5 512/5/5
f 514/5/5 512/5/5 511/5/5
f 515/4/5 513/4/5 512/4/5
f 515/5/5 512/5/5 514/5/5
f 516/4/5 513/4/5 515/4/5
f 520/4/5 519/4/5 518/4/5
f 521/5/5 518/5/5 517/5/5
f 522/4/5 520/4/5 518/4/5
f 522/5/5 518/5/5 521/5/5
f 523/4/5 520/4/5 522/4/5
f 528/3/5 525/3/5 524/3/5
f 529/3/5 525/3/5 528/3/5
f 530/3/5 527/3/5 526/3/5
f 531/3/5 527/3/5 530/3/5
f 532/5/6 533/5/6 538/5/6
f 533/4/6 534/4/6 539/4/6
f 538/5/6 533/5/6 539/5/6
f 539/4/6 534/4/6 540/4/6
f 534/5/6 535/5/6 541/5/6
f 540/4/6 534/4/6 541/4/6
f 535/4/6 536/4/6 542/4/6
f 541/5/6 535/5/6 542/5/6
f 542/4/6 536/4/6 543/4/6
f 536/5/6 537/5/6 544/5/6
f 543/4/6 536/4/6 544/4/6
f 544/5/6 537/5/6 545/5/6
f 546/4/6 547/4/6 554/4/6
f 547/5/6 548/5/6 555/5/6
f 554/4/6 547/4/6 555/4/6
f 548/4/6 549/4/6 556/4/6
f 555/5/6 548/5/6 556/5/6
f 549/5/6 550/5/6 557/5/6
f 556/4/6 549/4/6 557/4/6
f 550/4/6 551/4/6 558/4/6
f 557/5/6 550/5/6 558/5/6
f 551/5/6 552/5/6 559/5/6
f 558/4/6 551/4/6 559/4/6
f 552/4/6 553/4/6 560/4/6
f 559/5/6 552/5/6 560/5/6
f 560/4/6 553/4/6 561/4/6
f 562/4/6 563/4/6 571/4/6
f 563/5/6 564/5/6 572/5/6
f 571/4/6 563/4/6 572/4/6
f 564/4/6 565/4/6 573/4/6
f 572/5/6 564/5/6 573/5/6
f 565/5/6 566/5/6 574/5/6
f 573/4/6 565/4/6 574/4/6
f 566/4/6 567/4/6 575/4/6
f 574/5/6 566/5/6 575/5/6
f 567/5/6 568/5/6 576/5/6
f 575/4/6 567/4/6 576/4/6
f 568/4/6 569/4/6 577/4/6
f 576/5/6 568/5/6 577/5/6
f 577/4/6 569/4/6 578/4/6
f 578/4/6 569/4/6 579/4/6
f 570/4/6 571/4/6 581/4/6
f 571/4/6 572/4/6 581/4/6
f 581/4/6 572/4/6 582/4/6
f 581/5/6 582/5/6 583/5/6
f 582/4/6 572/4/6 584/4/6
f 583/5/6 582/5/6 584/5/6
f 584/4/6 572/4/6 585/4/6
f 579/4/6 580/4/6 586/4/6
f 578/4/6 579/4/6 586/4/6
f 586/4/6 580/4/6 587/4/6
f 587/4/6 580/4/6 588/4/6
f 584/4/6 585/4/6 589/4/6
f 585/4/6 586/4/6 589/4/6
f 586/5/6 587/5/6 590/5/6
f 589/4/6 586/4/6 590/4/6
f 590/5/6 587/5/6 591/5/6
f 592/3/6 593/3/6 596/3/6
f 596/3/6 593/3/6 597/3/6
f 594/3/6 595/3/6 598/3/6
f 598/3/6 595/3/6 599/3/6
f 600/3/6 601/3/6 602/3/6
f 602/3/6 601/3/6 603/3/6
